<?xml version="1.0" encoding="UTF-8"?>
<!-- Generator: Adobe Illustrator 25.4.1, SVG Export Plug-In . SVG Version: 6.00 Build 0)  -->
<svg xmlns="http://www.w3.org/2000/svg" xmlns:xlink="http://www.w3.org/1999/xlink" version="1.1" id="Ebene_1" x="0px" y="0px" viewBox="0 0 283.5 283.5" style="enable-background:new 0 0 283.5 283.5;" xml:space="preserve">
<style type="text/css">
	.st0{fill:#FFFFFF;}
	.st1{fill:url(#SVGID_1_);}
	.st2{fill:url(#SVGID_00000170993390914977783740000013022256549985095085_);}
	.st3{fill:#DC0A2F;}
</style>
<rect x="0" class="st0" width="283.5" height="283.5"></rect>
<radialGradient id="SVGID_1_" cx="73.9765" cy="106.9962" r="59.9005" fx="63.0975" fy="70.9616" gradientTransform="matrix(1 0 0 -1 0 282.163)" gradientUnits="userSpaceOnUse">
	<stop offset="0.7057" style="stop-color:#FFFFFF"></stop>
	<stop offset="1" style="stop-color:#CCCCCC"></stop>
</radialGradient>
<circle class="st1" cx="74" cy="175.2" r="60"></circle>
<radialGradient id="SVGID_00000031177822737891047460000009231919700078183580_" cx="197.3227" cy="95.0884" r="59.988" fx="186.4278" fy="59.0012" gradientTransform="matrix(1 0 0 -1 0 282.163)" gradientUnits="userSpaceOnUse">
	<stop offset="0.7057" style="stop-color:#FFFFFF"></stop>
	<stop offset="1" style="stop-color:#CCCCCC"></stop>
</radialGradient>
<circle style="fill:url(#SVGID_00000031177822737891047460000009231919700078183580_);" cx="197.3" cy="187.1" r="60"></circle>
<path class="st3" d="M15.4,188.2c0,0,4.4,13.9,14.3,25.6c4,4,18.2,11.2,34.8,8.8c22.5-3.6,50.1-6.7,61.3-22.2  c8.3-11.5,8.5-19.7,7.2-31.7c-1.2-11.3-3.6-16.2-3.6-16.2s17.7,0.4,17.1,3.1c-1.9,5.4-2.6,7.8-3.6,15.1c-1.6,13.5,4.5,31,9.2,37.5  c4.7,6.3,14.4,14.4,32.6,20c18.2,5.6,36.6,7.9,42.9,4.7s17.1-9.4,23.6-19.3c4.5-7,6.1-26.3,6.1-26.3s26.2,4,26.2,8.7  c0,4.7,0,87.5,0,87.5H0v-95.3C4.8,186.5,15.4,188.2,15.4,188.2z"></path>
<circle cx="83.2" cy="184.4" r="22.2"></circle>
<circle cx="184.7" cy="161.9" r="22.2"></circle>
</svg>
