<?xml version="1.0" encoding="utf-8"?>
<!-- Generator: Adobe Illustrator 24.0.1, SVG Export Plug-In . SVG Version: 6.00 Build 0)  -->
<svg version="1.1" id="Ebene_1" xmlns="http://www.w3.org/2000/svg" xmlns:xlink="http://www.w3.org/1999/xlink" x="0px" y="0px"
	 viewBox="0 0 1024.3 1024.3" enable-background="new 0 0 1024.3 1024.3" xml:space="preserve">
<g>
	<rect fill="#FFFFFF" width="1024.3" height="1024.3"/>
	<g>
		
			<radialGradient id="SVGID_1_" cx="267.9774" cy="636.3581" r="213.8598" fx="229.1365" fy="507.7053" gradientUnits="userSpaceOnUse">
			<stop  offset="0.7057" style="stop-color:#FFFFFF"/>
			<stop  offset="1" style="stop-color:#CCCCCC"/>
		</radialGradient>
		<circle fill="url(#SVGID_1_)" cx="268" cy="636.4" r="213.9"/>
		
			<radialGradient id="SVGID_2_" cx="708.2852" cy="678.6789" r="213.8598" fx="669.4442" fy="550.0261" gradientUnits="userSpaceOnUse">
			<stop  offset="0.7057" style="stop-color:#FFFFFF"/>
			<stop  offset="1" style="stop-color:#CCCCCC"/>
		</radialGradient>
		<circle fill="url(#SVGID_2_)" cx="708.3" cy="678.7" r="213.9"/>
		<path fill="#3EA3DC" d="M0,682.9h62.1c0,0,33.5,77.1,47.7,91.3s64.8,40.3,123.9,30.9c79.8-12.7,178.5-23.7,218.8-79.6
			c29.3-40.6,34.1-73.9,28.4-113.7c-5.7-39.8-15.1-56.8-15.1-56.8s63.7,1.6,60.6,11.4c-13.4,42.6-7.3,5.6-13.2,53.9
			c-5.9,48.4,16,110.9,33.1,133.6s51.2,51.2,116.5,71s130.7,28.4,153.5,17.1c22.7-11.4,61.1-33.3,84.1-69.3
			c16-25,21.8-94.1,21.8-94.1s103.9,24.2,103.9,41.2s0,312.6,0,312.6L0,1024.3V682.9z"/>
		<circle cx="300.6" cy="668.7" r="79.6"/>
		<circle cx="662.8" cy="589.2" r="79.6"/>
	</g>
</g>
</svg>
