<?xml version="1.0" encoding="utf-8"?>
<!-- Generator: Adobe Illustrator 21.0.0, SVG Export Plug-In . SVG Version: 6.00 Build 0)  -->
<svg version="1.1" id="Ebene_1" xmlns="http://www.w3.org/2000/svg" xmlns:xlink="http://www.w3.org/1999/xlink" x="0px" y="0px"
	 viewBox="0 0 16 16" style="enable-background:new 0 0 16 16;" xml:space="preserve">
<style type="text/css">
	.st0{fill:#DB0132;}
	.st1{fill:#FFFFFF;}
</style>
<rect class="st0" width="16" height="16"/>
<path class="st1" d="M11.5,8.6c0,1.6-0.1,2.3-0.6,3.1c-0.6,0.9-1.8,1.6-2.9,1.6c-1.9,0-3.4-1.6-3.4-3.5c0-1.9,1.5-3.5,3.4-3.5
	c0.8,0,1.8,0.3,2.5,0.9c0.1,0.1,0.3,0.3,0.5,0.5V5.9c-0.6-0.5-0.9-0.6-1.5-0.8C9,5,8.5,4.9,8,4.9C5.3,4.9,3.2,7,3.2,9.7
	c0,2.7,2.2,4.8,4.8,4.8c1.5,0,3-0.7,3.8-1.9c0.8-1,1-2,1-4V1.5h-1.3V8.6z"/>
</svg>
